<svg width="16" height="16" viewBox="0 0 16 16" fill="none" xmlns="http://www.w3.org/2000/svg">
<path fill-rule="evenodd" clip-rule="evenodd" d="M8 15C11.866 15 15 11.866 15 8C15 4.13401 11.866 1 8 1C4.13401 1 1 4.13401 1 8C1 11.866 4.13401 15 8 15ZM8 16C12.4183 16 16 12.4183 16 8C16 3.58172 12.4183 0 8 0C3.58172 0 0 3.58172 0 8C0 12.4183 3.58172 16 8 16Z" fill="#C889C6"/>
<path d="M8.94401 6.33802L8.67401 8.84002H7.73801L7.46801 6.33802V4.73602H8.94401V6.33802ZM8.17901 9.56902C8.40101 9.56902 8.58101 9.63802 8.71901 9.77602C8.86301 9.91402 8.93501 10.094 8.93501 10.316C8.93501 10.538 8.86301 10.721 8.71901 10.865C8.58101 11.003 8.40101 11.072 8.17901 11.072C7.96301 11.072 7.78301 11.003 7.63901 10.865C7.50101 10.721 7.43201 10.538 7.43201 10.316C7.43201 10.094 7.50101 9.91402 7.63901 9.77602C7.78301 9.63802 7.96301 9.56902 8.17901 9.56902Z" fill="#C58BC5"/>
</svg>
